# xmcd
#
# Track frame offsets: 
#        150
#        23487
#        46374
#        70724
#        88035
#        105279
#        123658
#        135841
#        157158
#        177251
#        190160
#        224448
#
# Disc length: 3325 seconds
#
# Revision: 0
# Processed by: cddbd v1.5.2PL0 Copyright (c) Steve Scherf et al.
# Submitted via: ExactAudioCopy v1.2
#
DISCID=9c0cfb0c
DTITLE=Robert Lee Coleman - What Left
DYEAR=2018
DGENRE=Blues
TTITLE0=Real Motha for Ya
TTITLE1=Kinfolk
TTITLE2=Bleeds the Blues
TTITLE3=Somebody Loves Me
TTITLE4=Big Boss Man
TTITLE5=Blues So Bad
TTITLE6=Shoe Is on the Other Foot
TTITLE7=Done Forgot About Love
TTITLE8=Mama Told Me
TTITLE9=Country Woman
TTITLE10=Set You Free
TTITLE11=Tennessee Whiskey - I'd Rather Go Blind
EXTD=
EXTT0=
EXTT1=
EXTT2=
EXTT3=
EXTT4=
EXTT5=
EXTT6=
EXTT7=
EXTT8=
EXTT9=
EXTT10=
EXTT11=
PLAYORDER=
